HIERARCHY
ROOT Hips
{
    OFFSET 0.000000 0.000000 0.000000
    CHANNELS 6 Xposition Yposition Zposition Zrotation Yrotation Xrotation
    JOINT Chest
    {
        OFFSET 0.000000 1.634758 -0.000000
        CHANNELS 3 Zrotation Yrotation Xrotation
        JOINT Chest2
        {
            OFFSET 0.000000 2.197341 0.000000
            CHANNELS 3 Zrotation Yrotation Xrotation
            JOINT Neck
            {
                OFFSET 0.000000 0.961544 0.000000
                CHANNELS 3 Zrotation Yrotation Xrotation
                JOINT Head
                {
                    OFFSET 0.000000 0.632542 -0.032565
                    CHANNELS 3 Zrotation Yrotation Xrotation
                    End Site
                    {
                        OFFSET -0.000001 0.439502 2.922845
                    }
                }
            }
            JOINT LeftCollar
            {
                OFFSET 0.167536 0.778237 -0.168280
                CHANNELS 3 Zrotation Yrotation Xrotation
                JOINT LeftShoulder
                {
                    OFFSET 0.831514 -0.002900 0.006458
                    CHANNELS 3 Zrotation Yrotation Xrotation
                    JOINT LeftElbow
                    {
                        OFFSET 2.272872 -0.026639 0.059314
                        CHANNELS 3 Zrotation Yrotation Xrotation
                        JOINT LeftWrist
                        {
                            OFFSET 2.081982 -0.024402 0.054333
                            CHANNELS 3 Zrotation Yrotation Xrotation
                            JOINT LeftHandThumb1
                            {
                                OFFSET 0.218903 -0.128645 0.283837
                                CHANNELS 3 Zrotation Yrotation Xrotation
                                JOINT LeftHandThumb2
                                {
                                    OFFSET 0.137157 -0.025101 0.077902
                                    CHANNELS 3 Zrotation Yrotation Xrotation
                                    JOINT LeftHandThumb3
                                    {
                                        OFFSET 0.144677 -0.110837 0.017973
                                        CHANNELS 3 Zrotation Yrotation Xrotation
                                        End Site
                                        {
                                            OFFSET 0.238629 -0.118167 0.030483
                                        }
                                    }
                                }
                            }
                            JOINT LeftHandFore1
                            {
                                OFFSET 0.767340 -0.016076 0.196678
                                CHANNELS 3 Zrotation Yrotation Xrotation
                                JOINT LeftHandFore2
                                {
                                    OFFSET 0.209404 -0.053324 0.017376
                                    CHANNELS 3 Zrotation Yrotation Xrotation
                                    JOINT LeftHandFore3
                                    {
                                        OFFSET 0.112814 -0.062483 0.011475
                                        CHANNELS 3 Zrotation Yrotation Xrotation
                                        End Site
                                        {
                                            OFFSET 0.141688 -0.130714 0.014314
                                        }
                                    }
                                }
                            }
                            JOINT LeftHandMiddle1
                            {
                                OFFSET 0.709887 -0.008320 0.018526
                                CHANNELS 3 Zrotation Yrotation Xrotation
                                JOINT LeftHandMiddle2
                                {
                                    OFFSET 0.233999 -0.070943 0.016591
                                    CHANNELS 3 Zrotation Yrotation Xrotation
                                    JOINT LeftHandMiddle3
                                    {
                                        OFFSET 0.117692 -0.086130 0.010647
                                        CHANNELS 3 Zrotation Yrotation Xrotation
                                        End Site
                                        {
                                            OFFSET 0.132859 -0.194135 0.017044
                                        }
                                    }
                                }
                            }
                            JOINT LeftHandRing1
                            {
                                OFFSET 0.743817 -0.005823 -0.153668
                                CHANNELS 3 Zrotation Yrotation Xrotation
                                JOINT LeftHandRing2
                                {
                                    OFFSET 0.336058 -0.108613 0.001361
                                    CHANNELS 3 Zrotation Yrotation Xrotation
                                    JOINT LeftHandRing3
                                    {
                                        OFFSET 0.089069 -0.103024 0.007631
                                        CHANNELS 3 Zrotation Yrotation Xrotation
                                        End Site
                                        {
                                            OFFSET 0.049848 -0.109061 0.006372
                                        }
                                    }
                                }
                            }
                            JOINT LeftHandLittle1
                            {
                                OFFSET 0.689408 -0.053302 -0.308304
                                CHANNELS 3 Zrotation Yrotation Xrotation
                                JOINT LeftHandLittle2
                                {
                                    OFFSET 0.193658 -0.023245 -0.003183
                                    CHANNELS 3 Zrotation Yrotation Xrotation
                                    JOINT LeftHandLittle3
                                    {
                                        OFFSET 0.097112 -0.070948 0.005653
                                        CHANNELS 3 Zrotation Yrotation Xrotation
                                        End Site
                                        {
                                            OFFSET 0.065828 -0.175021 0.036372
                                        }
                                    }
                                }
                            }
                        }
                    }
                }
            }
            JOINT RightCollar
            {
                OFFSET -0.167536 0.778237 -0.168280
                CHANNELS 3 Zrotation Yrotation Xrotation
                JOINT RightShoulder
                {
                    OFFSET -0.831514 -0.002900 0.006457
                    CHANNELS 3 Zrotation Yrotation Xrotation
                    JOINT RightElbow
                    {
                        OFFSET -2.272872 -0.026639 0.059313
                        CHANNELS 3 Zrotation Yrotation Xrotation
                        JOINT RightWrist
                        {
                            OFFSET -2.081982 -0.024402 0.054331
                            CHANNELS 3 Zrotation Yrotation Xrotation
                            JOINT RightHandThumb1
                            {
                                OFFSET -0.218911 -0.128571 0.283837
                                CHANNELS 3 Zrotation Yrotation Xrotation
                                JOINT RightHandThumb2
                                {
                                    OFFSET -0.137157 -0.025101 0.077902
                                    CHANNELS 3 Zrotation Yrotation Xrotation
                                    JOINT RightHandThumb3
                                    {
                                        OFFSET -0.164479 -0.078518 -0.017914
                                        CHANNELS 3 Zrotation Yrotation Xrotation
                                        End Site
                                        {
                                            OFFSET -0.238613 -0.118888 0.027679
                                        }
                                    }
                                }
                            }
                            JOINT RightHandFore1
                            {
                                OFFSET -0.767344 -0.015991 0.196679
                                CHANNELS 3 Zrotation Yrotation Xrotation
                                JOINT RightHandFore2
                                {
                                    OFFSET -0.153453 -0.151627 -0.021408
                                    CHANNELS 3 Zrotation Yrotation Xrotation
                                    JOINT RightHandFore3
                                    {
                                        OFFSET -0.034088 -0.124697 0.007132
                                        CHANNELS 3 Zrotation Yrotation Xrotation
                                        End Site
                                        {
                                            OFFSET 0.039478 -0.185651 0.036632
                                        }
                                    }
                                }
                            }
                            JOINT RightHandMiddle1
                            {
                                OFFSET -0.709887 -0.008302 0.018525
                                CHANNELS 3 Zrotation Yrotation Xrotation
                                JOINT RightHandMiddle2
                                {
                                    OFFSET -0.112772 -0.217303 0.011128
                                    CHANNELS 3 Zrotation Yrotation Xrotation
                                    JOINT RightHandMiddle3
                                    {
                                        OFFSET 0.130084 -0.065885 -0.011041
                                        CHANNELS 3 Zrotation Yrotation Xrotation
                                        End Site
                                        {
                                            OFFSET 0.211884 -0.101951 -0.018479
                                        }
                                    }
                                }
                            }
                            JOINT RightHandRing1
                            {
                                OFFSET -0.743819 -0.005785 -0.153669
                                CHANNELS 3 Zrotation Yrotation Xrotation
                                JOINT RightHandRing2
                                {
                                    OFFSET -0.057836 -0.345177 0.047345
                                    CHANNELS 3 Zrotation Yrotation Xrotation
                                    JOINT RightHandRing3
                                    {
                                        OFFSET 0.133317 -0.022566 -0.017958
                                        CHANNELS 3 Zrotation Yrotation Xrotation
                                        End Site
                                        {
                                            OFFSET 0.118311 -0.013137 -0.015816
                                        }
                                    }
                                }
                            }
                            JOINT RightHandLittle1
                            {
                                OFFSET -0.689403 -0.053298 -0.308303
                                CHANNELS 3 Zrotation Yrotation Xrotation
                                JOINT RightHandLittle2
                                {
                                    OFFSET -0.002101 -0.194256 0.017767
                                    CHANNELS 3 Zrotation Yrotation Xrotation
                                    JOINT RightHandLittle3
                                    {
                                        OFFSET 0.105220 -0.038290 -0.044251
                                        CHANNELS 3 Zrotation Yrotation Xrotation
                                        End Site
                                        {
                                            OFFSET 0.151620 -0.085237 -0.077684
                                        }
                                    }
                                }
                            }
                        }
                    }
                }
            }
        }
    }
    JOINT LeftHip
    {
        OFFSET 0.685143 0.673822 -0.044491
        CHANNELS 3 Zrotation Yrotation Xrotation
        JOINT LeftKnee
        {
            OFFSET 0.085364 -3.750208 0.017676
            CHANNELS 3 Zrotation Yrotation Xrotation
            JOINT LeftAnkle
            {
                OFFSET 0.094583 -4.155206 0.019585
                CHANNELS 3 Zrotation Yrotation Xrotation
                JOINT LeftToe
                {
                    OFFSET -0.000000 -0.395925 0.621478
                    CHANNELS 3 Zrotation Yrotation Xrotation
                    End Site
                    {
                        OFFSET -0.000000 -0.077878 0.321152
                    }
                }
            }
        }
    }
    JOINT RightHip
    {
        OFFSET -0.685143 0.673822 -0.044492
        CHANNELS 3 Zrotation Yrotation Xrotation
        JOINT RightKnee
        {
            OFFSET -0.085364 -3.750208 0.017677
            CHANNELS 3 Zrotation Yrotation Xrotation
            JOINT RightAnkle
            {
                OFFSET -0.094583 -4.155206 0.019585
                CHANNELS 3 Zrotation Yrotation Xrotation
                JOINT RightToe
                {
                    OFFSET -0.000000 -0.395925 0.621478
                    CHANNELS 3 Zrotation Yrotation Xrotation
                    End Site
                    {
                        OFFSET -0.000000 -0.077878 0.321152
                    }
                }
            }
        }
    }
}
MOTION
Frames: 4
Frame Time: 0.033333
-0.014452 8.272582 -0.481818 180.000000 -0.000011 180.000000 1.308502 0.099275 -4.886453 0.000983 -0.015421 -3.645254 -5.326453 17.706648 4.640019 -2.083673 35.231060 10.179581 -9.711320 2.345715 0.005532 -41.237537 27.140524 81.630127 177.156265 -72.089630 -177.937653 -31.954473 -15.585536 24.211847 -0.000003 -0.000001 0.000002 0.000003 -0.000001 -0.000001 -0.000003 -0.000001 0.000003 0.000000 -0.000000 0.000001 0.000000 -0.000000 0.000000 -0.000006 -0.000001 -0.000000 0.000001 -0.000000 0.000002 -0.000005 0.000000 -0.000001 -0.000001 -0.000001 0.000000 -0.000002 -0.000000 -0.000000 0.000001 0.000000 0.000002 0.000001 -0.000001 -0.000000 0.000000 0.000000 0.000000 -0.000007 0.000000 -0.000001 0.000002 0.000001 -0.000000 13.932528 0.645738 0.001516 54.738911 2.279807 1.330163 -0.000001 0.000001 -0.000000 -5.852837 11.435914 72.695038 -0.000005 -0.000000 -0.000003 0.000003 0.000000 0.000007 0.000003 -0.000000 -0.000007 0.000002 -0.000000 -0.000002 -0.000002 -0.000003 0.000005 -0.000003 0.000001 0.000003 0.000005 0.000000 0.000000 -0.000003 -0.000000 0.000000 0.000000 0.000001 -0.000002 0.000002 -0.000001 0.000000 -0.000005 0.000000 0.000000 0.000000 -0.000000 0.000002 0.000002 0.000002 -0.000002 0.000002 -0.000001 0.000002 -0.000002 0.000003 0.000002 -0.791676 0.660192 -3.563453 0.034809 0.299279 13.266241 -1.132915 2.501598 -14.614892 -0.019689 -0.132191 -5.160316 0.779142 -0.932944 -3.578251 -0.034877 -0.299619 13.281515 0.253107 -1.906094 -14.594919 0.009224 0.061702 -5.126415
-0.014452 8.272582 -0.481818 180.000000 -0.000011 180.000000 1.310543 0.098492 -4.886466 -0.001365 -0.015122 -3.645002 -5.327447 17.705736 4.634952 -2.083582 35.229889 10.170444 -9.711293 2.345208 0.005606 -41.233044 27.132710 81.636673 177.156372 -72.088669 -177.937759 -31.954365 -15.585871 24.211235 0.000000 0.000001 0.000006 0.000005 0.000000 -0.000003 -0.000003 -0.000001 0.000000 0.000006 -0.000001 0.000001 0.000001 0.000000 0.000000 -0.000008 -0.000001 -0.000000 0.000003 -0.000001 0.000003 -0.000002 0.000000 0.000001 0.000004 -0.000000 0.000000 0.000010 -0.000002 0.000002 0.000018 0.000001 0.000000 0.000004 -0.000000 0.000001 0.000004 -0.000003 0.000001 -0.000006 -0.000000 0.000000 0.000003 0.000001 0.000000 13.932652 0.645283 0.001407 54.740265 2.279784 1.330230 0.000003 0.000001 0.000000 -5.852951 11.435056 72.694290 -0.000002 0.000003 -0.000014 0.000002 -0.000003 0.000000 -0.000002 0.000006 0.000003 -0.000005 -0.000007 -0.000012 -0.000003 0.000003 0.000002 -0.000003 -0.000003 0.000003 0.000002 -0.000005 -0.000007 0.000005 0.000000 0.000002 -0.000003 0.000002 0.000002 -0.000002 -0.000008 -0.000010 0.000000 -0.000005 0.000002 0.000000 -0.000002 0.000000 -0.000012 0.000004 0.000000 0.000007 -0.000002 -0.000005 -0.000005 0.000002 0.000002 -0.791797 0.657787 -3.563456 0.034810 0.299281 13.266346 -1.133489 2.504103 -14.614826 -0.019692 -0.132222 -5.160622 0.779451 -0.927330 -3.578240 -0.034878 -0.299623 13.281729 0.255912 -1.913679 -14.595018 0.009249 0.061867 -5.126701
-0.014451 8.272582 -0.481818 180.000000 -0.000011 180.000000 1.314377 0.098331 -4.886298 -0.001849 -0.015060 -3.644898 -5.329772 17.703442 4.622113 -2.083185 35.224739 10.147611 -9.711253 2.344942 0.005624 -41.225006 27.110802 81.654404 177.156464 -72.087921 -177.937851 -31.954041 -15.586863 24.209417 0.000009 0.000003 0.000009 0.000002 -0.000001 0.000001 -0.000003 -0.000002 -0.000001 0.000007 0.000002 0.000000 -0.000002 0.000000 -0.000000 -0.000006 -0.000001 0.000000 -0.003465 -0.000081 0.000268 -0.004873 -0.000227 0.000507 0.000002 0.000000 -0.000000 0.000007 0.000001 -0.000001 -0.005472 0.000174 0.000285 0.000006 0.000001 0.000000 0.000002 0.000002 -0.000001 -0.004446 -0.001105 0.000631 -0.004701 -0.000926 0.001830 13.931967 0.644673 0.001391 54.740116 2.278229 1.329796 -0.000004 -0.000000 -0.000000 -5.853279 11.432522 72.692085 -0.000003 0.000005 0.000005 0.000000 -0.000001 -0.000003 -0.000003 -0.000000 0.000002 -0.000010 -0.000000 0.000003 -0.000002 -0.000006 -0.000005 -0.000003 0.000001 0.000000 -0.000002 0.000003 0.000005 -0.000003 0.000002 0.000000 -0.000003 0.000004 0.000003 -0.000014 -0.000003 0.000002 0.000002 0.000002 0.000000 -0.000005 -0.000001 0.000002 -0.000002 0.000007 0.000005 -0.000002 -0.000006 0.000002 0.000002 0.000005 -0.000002 -0.792158 0.650713 -3.563300 0.034810 0.299281 13.266347 -1.135173 2.511479 -14.614481 -0.019704 -0.132320 -5.161671 0.780363 -0.910751 -3.578549 -0.034885 -0.299652 13.283010 0.264236 -1.936065 -14.595621 0.009320 0.062348 -5.127342
-0.014450 8.272582 -0.481818 180.000000 -0.000011 180.000000 1.317954 0.100712 -4.886058 0.005294 -0.015971 -3.644628 -5.332753 17.700211 4.603943 -2.082371 35.214237 10.115726 -9.711602 2.345952 0.005393 -41.218189 27.075207 81.681458 177.156265 -72.089500 -177.937653 -31.953501 -15.588507 24.206409 0.000013 0.000007 0.000011 0.000002 -0.000004 -0.000002 -0.000003 -0.000001 0.000001 0.000015 0.000008 0.000001 -0.005466 -0.000272 0.000566 -0.000006 -0.000001 0.000001 -0.009062 -0.000185 0.000708 -0.012861 -0.000598 0.001341 -0.005637 -0.000190 0.000307 -0.000519 -0.000014 0.000079 -0.014455 0.000461 0.000746 0.000001 -0.000001 -0.000001 -0.004073 -0.000050 0.000848 -0.011806 -0.003993 0.001654 -0.013673 -0.002598 0.001644 13.929816 0.644702 0.001722 54.734512 2.274385 1.328469 -0.000000 0.000001 -0.000000 -5.853828 11.428377 72.688469 -0.000003 0.000002 -0.000003 -0.000002 0.000003 0.000002 -0.000002 -0.000003 0.000002 -0.000005 -0.000002 -0.000009 -0.000002 0.000002 0.000002 0.000000 -0.000001 0.000002 0.000009 -0.000004 -0.000003 0.000002 -0.000001 0.000002 -0.000002 -0.000003 -0.000003 -0.000012 -0.000002 -0.000003 -0.000007 -0.000005 0.000003 0.000000 0.000004 -0.000002 -0.000007 0.000005 0.000003 0.000000 -0.000000 -0.000003 -0.000007 0.000003 -0.000002 -0.792744 0.639171 -3.563075 0.034810 0.299282 13.266401 -1.137931 2.523516 -14.613948 -0.019724 -0.132475 -5.163328 0.781856 -0.883647 -3.579020 -0.034896 -0.299697 13.285041 0.277909 -1.972687 -14.596570 0.009437 0.063142 -5.128470
